<svg id="Layer_1" enable-background="new 0 0 512.002 512.002" height="512" viewBox="0 0 512.002 512.002" width="512" xmlns="http://www.w3.org/2000/svg"><g><g><path d="m256.001 332.002c-38.598 0-70 31.402-70 70s31.402 70 70 70 70-31.402 70-70-31.402-70-70-70zm48.994 60h-38.994v-38.994c19.563 3.987 35.007 19.431 38.994 38.994zm-58.994-38.994v38.994h-38.994c3.987-19.563 19.431-35.007 38.994-38.994zm-38.994 58.994h38.994v38.994c-19.563-3.987-35.007-19.432-38.994-38.994zm58.994 38.994v-38.994h38.994c-3.987 19.562-19.431 35.007-38.994 38.994z"/><path d="m456.001 302.002h-46.161l15.001-45.385c16.241-17.786 26.16-41.439 26.16-67.365 0-25.337-9.477-48.498-25.065-66.139-2.064-68.23-58.226-123.113-126.937-123.113h-85.995c-68.685 0-124.874 54.894-126.939 123.114-15.588 17.641-25.064 40.802-25.064 66.138 0 25.926 9.919 49.578 26.159 67.364l15.002 45.386h-46.161c-16.542 0-30 13.458-30 30v140c0 16.542 13.458 30 30 30h59.999c2.652 0 5.196-1.054 7.071-2.929l39.339-39.338c19.404 31.342 54.098 52.267 93.591 52.267s74.187-20.925 93.591-52.267l39.339 39.338c1.875 1.875 4.418 2.929 7.071 2.929h59.999c16.542 0 30-13.458 30-30v-140c0-16.542-13.458-30-30-30zm-49.999 20h20.001v160h-20.001zm-55.001-52.75c-44.112 0-80-35.888-80-80s35.888-80 80-80 80 35.888 80 80-35.887 80-80 80zm-137.998-249.252h85.995c51.167 0 94.07 36.125 104.549 84.207-15.279-9.475-33.284-14.955-52.546-14.955-44.238 0-81.853 28.877-95 68.77-13.147-39.893-50.762-68.77-95-68.77-19.262 0-37.265 5.48-52.544 14.954 10.484-48.076 53.4-84.206 104.546-84.206zm-52.002 89.252c44.112 0 80 35.888 80 80s-35.888 80-80 80-80-35.888-80-80 35.888-80 80-80zm-55.001 372.75h-20.002v-160h20.002zm-59.999-10v-140c0-5.514 4.486-10 10-10h9.997v160h-9.997c-5.514 0-10-4.486-10-10zm100-24.143-20.001 20.001v-131.716l20.001 20.001zm110 44.143c-49.626 0-90-40.374-90-90 0-34.176 18.971-64.981 49.51-80.396 4.931-2.489 6.91-8.503 4.421-13.434-2.488-4.93-8.503-6.907-13.433-4.422-18.622 9.399-33.722 23.484-44.18 40.427l-37.57-37.569-9.385-28.393c13.69 7.051 29.207 11.036 45.637 11.036 44.238 0 81.853-28.877 95-68.77 13.147 39.893 50.762 68.77 95 68.77 16.43 0 31.946-3.985 45.636-11.036l-9.385 28.393-37.571 37.569c-10.456-16.94-25.553-31.024-44.171-40.423-4.931-2.488-10.945-.512-13.434 4.42-2.489 4.93-.51 10.944 4.42 13.434 30.535 15.416 49.503 46.221 49.503 80.393.002 49.627-40.372 90.001-89.998 90.001zm110-135.857 20.001-20.001v131.716l-20.001-20.001zm100 115.857c0 5.514-4.486 10-10 10h-9.997v-160h9.997c5.514 0 10 4.486 10 10z"/><path d="m161.001 249.252c33.084 0 60-26.916 60-60s-26.916-60-60-60-60 26.916-60 60 26.916 60 60 60zm0-100c22.056 0 40 17.944 40 40s-17.944 40-40 40-40-17.944-40-40 17.944-40 40-40z"/><path d="m351.001 129.252c-33.084 0-60 26.916-60 60s26.916 60 60 60 60-26.916 60-60-26.916-60-60-60zm0 100c-22.056 0-40-17.944-40-40s17.944-40 40-40 40 17.944 40 40-17.943 40-40 40z"/><path d="m256.008 312.002c5.523 0 10-4.478 10-10s-4.477-10-10-10h-.007c-5.523 0-9.996 4.478-9.996 10s4.48 10 10.003 10z"/></g></g></svg>